<svg 
  width="813" 
  height="752" 
  viewBox="0 0 813 752" 
  fill="none" 
  xmlns="http://www.w3.org/2000/svg"
>
  <path
    d="M781.166 416.803V234.371C781.166 180.611 759.81 129.052 721.796 91.0382C683.782 53.0241 632.224 31.668 578.464 31.668H233.869C180.109 31.668 128.551 53.0241 90.5367 91.0382C52.5226 129.052 31.1665 180.611 31.1665 234.371V518.154C31.1665 544.774 36.4096 571.132 46.5963 595.725C56.7831 620.319 71.7141 642.664 90.5367 661.487C128.551 699.501 180.109 720.857 233.869 720.857H487.653"
    stroke="white"
    stroke-width="62"
    stroke-linecap="round" 
    stroke-linejoin="round" 
  />
  <path
    d="M41.707 578.964L152.788 449.235C167.376 434.746 186.522 425.742 206.986 423.748C227.45 421.753 247.974 426.89 265.085 438.289C282.197 449.687 302.721 454.824 323.185 452.83C343.648 450.835 362.795 441.831 377.383 427.343L471.842 332.883C498.984 305.649 534.919 288.946 573.236 285.753C611.552 282.56 649.756 293.085 681.031 315.451L781.166 392.883M244.41 302.072C253.247 302.019 261.988 300.226 270.132 296.795C278.277 293.363 285.666 288.362 291.877 282.075C298.089 275.788 303.001 268.339 306.334 260.154C309.667 251.969 311.355 243.207 311.302 234.37C311.248 225.532 309.455 216.791 306.024 208.647C302.593 200.502 297.591 193.114 291.304 186.902C285.017 180.691 277.569 175.778 269.383 172.445C261.198 169.113 252.437 167.425 243.599 167.478C225.751 167.585 208.676 174.779 196.131 187.475C183.587 200.172 176.6 217.332 176.707 235.181C176.815 253.029 184.008 270.103 196.705 282.648C209.401 295.193 226.561 302.18 244.41 302.072Z"
    stroke="white"
    stroke-width="62" 
    stroke-linecap="round" 
    stroke-linejoin="round" 
  />
  <path 
    d="M678.072 700.586V497.883" 
    stroke="white"
    stroke-width="62" 
    stroke-miterlimit="10"
    stroke-linecap="round" 
  />
  <path
    d="M585.112 615.25L664.856 694.993C666.586 696.739 668.644 698.124 670.913 699.07C673.181 700.015 675.614 700.502 678.072 700.502C680.529 700.502 682.963 700.015 685.231 699.07C687.499 698.124 689.558 696.739 691.288 694.993L771.031 615.25"
    stroke="white"
    stroke-width="62" 
    stroke-linecap="round" 
    stroke-linejoin="round" 
  />
</svg>