<svg 
  width="974" 
  height="974" 
  viewBox="0 0 974 974" 
  fill="none" 
  xmlns="http://www.w3.org/2000/svg"
>
  <path
    d="M365.25 639.188C365.25 631.115 368.457 623.373 374.165 617.665C379.873 611.957 387.615 608.75 395.688 608.75H578.312C586.385 608.75 594.127 611.957 599.835 617.665C605.543 623.373 608.75 631.115 608.75 639.188C608.75 647.26 605.543 655.002 599.835 660.71C594.127 666.418 586.385 669.625 578.312 669.625H395.688C387.615 669.625 379.873 666.418 374.165 660.71C368.457 655.002 365.25 647.26 365.25 639.188ZM243.5 456.562C243.5 448.49 246.707 440.748 252.415 435.04C258.123 429.332 265.865 426.125 273.938 426.125H700.062C708.135 426.125 715.877 429.332 721.585 435.04C727.293 440.748 730.5 448.49 730.5 456.562C730.5 464.635 727.293 472.377 721.585 478.085C715.877 483.793 708.135 487 700.062 487H273.938C265.865 487 258.123 483.793 252.415 478.085C246.707 472.377 243.5 464.635 243.5 456.562ZM121.75 273.938C121.75 265.865 124.957 258.123 130.665 252.415C136.373 246.707 144.115 243.5 152.188 243.5H821.812C829.885 243.5 837.627 246.707 843.335 252.415C849.043 258.123 852.25 265.865 852.25 273.938C852.25 282.01 849.043 289.752 843.335 295.46C837.627 301.168 829.885 304.375 821.812 304.375H152.188C144.115 304.375 136.373 301.168 130.665 295.46C124.957 289.752 121.75 282.01 121.75 273.938Z"
    fill="rgba(0, 80, 172, 1)"
  />
</svg>