<svg 
  width="787" 
  height="787" 
  viewBox="0 0 787 787" 
  fill="none" 
  xmlns="http://www.w3.org/2000/svg"
>
  <g
    clip-path="url(#clip0_1658_2)"
  >
    <path
      d="M311.521 393.5C350.657 393.5 388.19 377.953 415.863 350.28C443.537 322.607 459.083 285.074 459.083 245.938C459.083 206.801 443.537 169.268 415.863 141.595C388.19 113.922 350.657 98.375 311.521 98.375C272.385 98.375 234.852 113.922 207.179 141.595C179.505 169.268 163.958 206.801 163.958 245.938C163.958 285.074 179.505 322.607 207.179 350.28C234.852 377.953 272.385 393.5 311.521 393.5ZM688.625 295.125C688.625 321.216 678.261 346.238 659.812 364.687C641.363 383.136 616.341 393.5 590.25 393.5C564.16 393.5 539.137 383.136 520.689 364.687C502.24 346.238 491.875 321.216 491.875 295.125C491.875 269.034 502.24 244.012 520.689 225.563C539.137 207.114 564.16 196.75 590.25 196.75C616.341 196.75 641.363 207.114 659.812 225.563C678.261 244.012 688.625 269.034 688.625 295.125ZM311.521 426.292C376.875 426.292 436.293 446.229 479.972 474.364C501.844 488.465 520.568 505.09 534.176 523.224C547.523 541.095 557.459 562.574 557.459 585.561C557.459 610.319 545.981 630.157 529.126 644.487C513.223 657.932 492.498 666.655 471.085 672.656C428.03 684.69 371.071 688.625 311.521 688.625C251.971 688.625 195.012 684.69 151.99 672.656C130.544 666.655 109.819 657.932 93.9483 644.487C77.0278 630.19 65.5835 610.319 65.5835 585.561C65.5835 562.541 75.5194 541.095 88.8656 523.257C102.474 505.09 121.198 488.432 143.07 474.397C186.749 446.196 246.167 426.292 311.521 426.292ZM590.25 426.292C633.535 426.292 672.82 440.589 701.742 460.756C728.697 479.545 754.208 509.189 754.208 543.391C754.208 562.639 745.912 578.576 733.287 590.152C721.581 600.907 706.759 607.466 692.495 611.794C663.966 620.418 627.239 623.042 590.25 623.042H583.594C587.856 611.63 590.25 599.104 590.25 585.561C590.25 553.097 576.379 524.896 560.41 503.582C544.473 482.3 523.355 463.576 499.778 448.131C527.781 433.792 558.789 426.307 590.25 426.292Z"
      fill="white"
    />
  </g>
  <defs>
    <clipPath id="clip0_1658_2">
      <rect width="787" height="787" fill="white" />
    </clipPath>
  </defs>
</svg>