<svg 
  width="725" 
  height="725" 
  viewBox="0 0 725 725" 
  fill="none"
  xmlns="http://www.w3.org/2000/svg"
>
  <path 
    d="M362.5 513.543C354.788 513.504 347.182 511.749 340.232 508.405C333.283 505.061 327.165 500.212 322.323 494.21L195.146 340.147C187.715 330.872 183.038 319.696 181.649 307.893C180.261 296.089 182.216 284.133 187.292 273.387C191.409 264.047 198.127 256.09 206.644 250.465C215.161 244.841 225.117 241.787 235.323 241.668H489.677C499.883 241.787 509.839 244.841 518.356 250.465C526.874 256.09 533.592 264.047 537.708 273.387C542.784 284.133 544.74 296.089 543.351 307.893C541.962 319.696 537.286 330.872 529.854 340.147L402.677 494.21C397.835 500.212 391.717 505.061 384.768 508.405C377.819 511.749 370.212 513.504 362.5 513.543Z" 
    fill="white"
  />
</svg>
