<svg 
  width="24" 
  height="24" 
  fill="none" 
  viewBox="0 0 24 24" 
  xmlns="http://www.w3.org/2000/svg"
>
  <path
    d="M7 13.0009V5.00091C7 4.73569 6.89464 4.48134 6.70711 4.2938C6.51957 4.10627 6.26522 4.00091 6 4.00091H4C3.73478 4.00091 3.48043 4.10627 3.29289 4.2938C3.10536 4.48134 3 4.73569 3 5.00091V12.0009C3 12.2661 3.10536 12.5205 3.29289 12.708C3.48043 12.8956 3.73478 13.0009 4 13.0009H7ZM7 13.0009C8.06087 13.0009 9.07828 13.4223 9.82843 14.1725C10.5786 14.9226 11 15.94 11 17.0009V18.0009C11 18.5313 11.2107 19.04 11.5858 19.4151C11.9609 19.7902 12.4696 20.0009 13 20.0009C13.5304 20.0009 14.0391 19.7902 14.4142 19.4151C14.7893 19.04 15 18.5313 15 18.0009V13.0009H18C18.5304 13.0009 19.0391 12.7902 19.4142 12.4151C19.7893 12.04 20 11.5313 20 11.0009L19 6.00091C18.8562 5.38743 18.5834 4.86067 18.2227 4.49994C17.8619 4.13922 17.4328 3.96409 17 4.00091H10C9.20435 4.00091 8.44129 4.31698 7.87868 4.87959C7.31607 5.4422 7 6.20526 7 7.00091"
    stroke="#FFFFFF"
    stroke-width="2"
    stroke-linecap="round"
    stroke-linejoin="round"
  />
</svg>