<svg width="1300" height="1300" viewBox="0 0 1300 1300" fill="none"
  xmlns="http://www.w3.org/2000/svg">
  <path
    d="M1057.87 347.21C1073.53 362.01 1082.67 382.42 1083.28 403.954C1083.88 425.488 1075.92 446.382 1061.12 462.044L600.708 949.544C593.246 957.43 584.279 963.742 574.337 968.104C564.394 972.467 553.679 974.793 542.822 974.944C531.966 975.096 521.189 973.07 511.129 968.986C501.069 964.903 491.929 958.844 484.25 951.169L240.5 707.419C226.148 692.016 218.335 671.645 218.706 650.595C219.077 629.546 227.605 609.463 242.491 594.576C257.377 579.69 277.461 571.163 298.51 570.791C319.559 570.42 339.931 578.233 355.333 592.585L540.042 777.185L943.042 350.46C957.841 334.806 978.251 325.669 999.785 325.06C1021.32 324.45 1042.21 332.418 1057.87 347.21Z"
    fill="white"
  />
</svg>